<svg id="Capa_1" enable-background="new 0 0 512.073 512.073" height="512" viewBox="0 0 512.073 512.073" width="512" xmlns="http://www.w3.org/2000/svg"><g><path d="m7.5 376.716c4.142 0 7.5-3.358 7.5-7.5l-.044-353.601 335.72-.043v141.902c0 4.142 3.357 7.5 7.5 7.5s7.5-3.358 7.5-7.5v-141.902c0-8.247-6.709-14.957-14.956-14.957h-335.764c-8.247 0-14.956 6.71-14.956 14.957v353.644c0 4.142 3.358 7.5 7.5 7.5z"/><path d="m326.176 164.974c4.143 0 7.5-3.358 7.5-7.5v-117.359c0-4.142-3.357-7.5-7.5-7.5h-29.103c-4.143 0-7.5 3.358-7.5 7.5s3.357 7.5 7.5 7.5h21.603v109.859c0 4.142 3.357 7.5 7.5 7.5z"/><path d="m215.518 259.677c-12.532 0-22.728 10.195-22.728 22.728 0 12.532 10.195 22.727 22.728 22.727s22.728-10.195 22.728-22.727c0-12.533-10.196-22.728-22.728-22.728zm0 30.455c-4.261 0-7.728-3.466-7.728-7.727s3.467-7.728 7.728-7.728 7.728 3.467 7.728 7.728-3.467 7.727-7.728 7.727z"/><path d="m509.87 251.115-26.802-34.059c-2.561-3.255-7.277-3.817-10.531-1.256-3.256 2.562-3.817 7.277-1.256 10.532l24.488 31.12-69.539 88.368v-18.391c0-4.142-3.357-7.5-7.5-7.5h-130.138v-124.955h130.138c4.143 0 7.5-3.358 7.5-7.5v-18.391l25.196 32.018c1.479 1.88 3.678 2.862 5.898 2.862 1.623 0 3.259-.525 4.633-1.606 3.256-2.562 3.817-7.277 1.256-10.532l-33.683-42.803c-2.699-3.429-7.282-4.772-11.406-3.347-4.124 1.428-6.895 5.319-6.895 9.683v24.616h-122.637v-82.654c0-5.068-3.455-9.378-8.401-10.479l-176.036-39.226h160.956c4.143 0 7.5-3.358 7.5-7.5s-3.357-7.5-7.5-7.5h-224.718c-4.627 0-8.393 3.765-8.393 8.393v406.832c0 4.894 3.333 9.065 8.107 10.145l73.841 16.691-98.948.026v-73.523c0-4.142-3.358-7.5-7.5-7.5s-7.5 3.358-7.5 7.5v73.523c0 8.247 6.709 14.956 14.956 14.956h165.274l95.259 21.532c.793.179 1.593.268 2.387.268 2.407 0 4.755-.812 6.684-2.353 2.563-2.048 4.033-5.105 4.033-8.387v-11.06h62.128c8.247 0 14.956-6.709 14.956-14.956v-117.273c0-4.142-3.357-7.5-7.5-7.5s-7.5 3.358-7.5 7.5l.044 117.229h-62.128v-17h37.584c4.143 0 7.5-3.358 7.5-7.5v-92.729c0-4.142-3.357-7.5-7.5-7.5s-7.5 3.358-7.5 7.5v85.229h-30.084v-107.729h122.637v24.616c0 4.364 2.771 8.255 6.895 9.683 1.099.38 2.229.564 3.348.564 3.084 0 6.078-1.395 8.058-3.91l80.341-102.094c2.935-3.73 2.935-8.942-.002-12.673zm-236.278 244.268-226.592-51.219v-393.917l226.592 50.49z"/><path d="m401.15 239.957v36.694c0 4.142 3.357 7.5 7.5 7.5s7.5-3.358 7.5-7.5v-36.694c0-4.142-3.357-7.5-7.5-7.5s-7.5 3.358-7.5 7.5z"/><path d="m331.754 232.414c4.143 0 7.5-3.358 7.5-7.5s-3.357-7.5-7.5-7.5h-20.814c-4.143 0-7.5 3.358-7.5 7.5v51.896c0 4.142 3.357 7.5 7.5 7.5h20.813c4.143 0 7.5-3.358 7.5-7.5s-3.357-7.5-7.5-7.5h-13.313v-10.948h11.778c4.143 0 7.5-3.358 7.5-7.5s-3.357-7.5-7.5-7.5h-11.778v-10.948z"/><path d="m350.846 282.783c1.313.925 2.82 1.369 4.312 1.369 2.357 0 4.678-1.108 6.139-3.181l7.707-10.94 7.693 10.936c1.46 2.076 3.781 3.185 6.141 3.185 1.49 0 2.996-.443 4.309-1.366 3.388-2.383 4.202-7.062 1.818-10.45l-10.785-15.331 8.967-12.728c2.385-3.386 1.574-8.065-1.812-10.451-3.389-2.386-8.065-1.573-10.451 1.812l-5.871 8.334-5.86-8.33c-2.382-3.387-7.059-4.203-10.449-1.819-3.388 2.383-4.202 7.062-1.818 10.45l8.952 12.725-10.802 15.334c-2.388 3.386-1.577 8.065 1.81 10.451z"/><path d="m443.103 284.151c4.143 0 7.5-3.358 7.5-7.5v-29.194h2.673c4.143 0 7.5-3.358 7.5-7.5s-3.357-7.5-7.5-7.5h-20.265c-4.143 0-7.5 3.358-7.5 7.5s3.357 7.5 7.5 7.5h2.592v29.194c0 4.142 3.357 7.5 7.5 7.5z"/></g></svg>