<svg id="Capa_1" enable-background="new 0 0 512 512" height="512" viewBox="0 0 512 512" width="512" xmlns="http://www.w3.org/2000/svg"><g><g><path d="m286.509 169.602c4.142 0 7.5-3.358 7.5-7.5v-53.348c0-4.142-3.358-7.5-7.5-7.5s-7.5 3.358-7.5 7.5v53.348c0 4.142 3.358 7.5 7.5 7.5z"/><path d="m159.358 169.602h22.338c4.142 0 7.5-3.358 7.5-7.5s-3.358-7.5-7.5-7.5h-14.838v-11.419h13.189c4.142 0 7.5-3.358 7.5-7.5s-3.358-7.5-7.5-7.5h-13.189v-11.447h14.838c4.142 0 7.5-3.358 7.5-7.5s-3.358-7.5-7.5-7.5h-22.338c-4.142 0-7.5 3.358-7.5 7.5v52.866c0 4.142 3.358 7.5 7.5 7.5z"/><path d="m242.545 133.539 14.451-20.458c2.39-3.383 1.584-8.063-1.799-10.453-3.382-2.39-8.062-1.584-10.453 1.799l-11.375 16.103-11.355-16.099c-2.388-3.385-7.067-4.193-10.452-1.806-3.385 2.388-4.193 7.067-1.806 10.452l14.428 20.455-17.125 24.243c-2.39 3.383-1.584 8.063 1.799 10.453 1.314.929 2.825 1.375 4.321 1.375 2.354 0 4.671-1.105 6.132-3.173l14.049-19.888 14.024 19.884c1.461 2.071 3.78 3.178 6.135 3.178 1.494 0 3.003-.445 4.316-1.372 3.385-2.388 4.193-7.067 1.806-10.452z"/><path d="m320.698 116.254h7.193v45.848c0 4.142 3.358 7.5 7.5 7.5s7.5-3.358 7.5-7.5v-45.848h7.335c4.142 0 7.5-3.358 7.5-7.5s-3.358-7.5-7.5-7.5h-29.528c-4.142 0-7.5 3.358-7.5 7.5s3.358 7.5 7.5 7.5z"/><path d="m447.11 435.29h-4.977v-427.79c0-4.142-3.358-7.5-7.5-7.5h-357.267c-4.142 0-7.5 3.358-7.5 7.5v427.79h-5.005c-11.485 0-20.829 9.341-20.829 20.823v35.065c0 11.482 9.344 20.823 20.829 20.823h382.249c11.501 0 20.857-9.341 20.857-20.823v-35.065c.001-11.483-9.356-20.823-20.857-20.823zm5.858 55.887c0 3.21-2.627 5.823-5.857 5.823h-382.25c-3.16 0-5.829-2.667-5.829-5.823v-35.065c0-3.211 2.615-5.823 5.829-5.823h174.896c4.142 0 7.5-3.358 7.5-7.5s-3.358-7.5-7.5-7.5h-114.051v-381.029h114.052c4.142 0 7.5-3.358 7.5-7.5s-3.358-7.5-7.5-7.5h-121.552c-4.142 0-7.5 3.358-7.5 7.5v388.53h-25.84v-420.29h342.268v420.29h-25.839v-388.53c0-4.142-3.358-7.5-7.5-7.5h-119.308c-4.142 0-7.5 3.358-7.5 7.5s3.358 7.5 7.5 7.5h111.807v381.03h-111.807c-4.142 0-7.5 3.358-7.5 7.5s3.358 7.5 7.5 7.5h172.623c3.23 0 5.857 2.612 5.857 5.823v35.064z"/><path d="m178.968 248.486c-18.49 0-33.533 15.025-33.533 33.494 0 18.453 15.043 33.465 33.533 33.465 18.505 0 33.561-15.013 33.561-33.465 0-18.469-15.056-33.494-33.561-33.494zm0 51.959c-10.219 0-18.533-8.284-18.533-18.465 0-10.197 8.314-18.494 18.533-18.494 10.234 0 18.561 8.296 18.561 18.494 0 10.181-8.327 18.465-18.561 18.465z"/></g></g></svg>