<?xml version="1.0"?>
<svg xmlns="http://www.w3.org/2000/svg" xmlns:xlink="http://www.w3.org/1999/xlink" xmlns:svgjs="http://svgjs.com/svgjs" version="1.1" width="512" height="512" x="0" y="0" viewBox="0 0 64 64" style="enable-background:new 0 0 512 512" xml:space="preserve" class=""><g><linearGradient xmlns="http://www.w3.org/2000/svg" id="New_Gradient_Swatch_3" gradientUnits="userSpaceOnUse" x1="32.727" x2="29.348" y1="66.571" y2=".123"><stop stop-opacity="1" stop-color="#aeaeae" offset="0"/><stop stop-opacity="1" stop-color="#ffffff" offset="1"/></linearGradient><linearGradient xmlns="http://www.w3.org/2000/svg" xmlns:xlink="http://www.w3.org/1999/xlink" id="New_Gradient_Swatch_3-2" x1="36.612" x2="33.233" xlink:href="#New_Gradient_Swatch_3" y1="66.373" y2="-.075"/><linearGradient xmlns="http://www.w3.org/2000/svg" xmlns:xlink="http://www.w3.org/1999/xlink" id="New_Gradient_Swatch_3-3" x1="36.815" x2="33.436" xlink:href="#New_Gradient_Swatch_3" y1="66.363" y2="-.085"/><linearGradient xmlns="http://www.w3.org/2000/svg" xmlns:xlink="http://www.w3.org/1999/xlink" id="New_Gradient_Swatch_3-4" x1="36.409" x2="33.031" xlink:href="#New_Gradient_Swatch_3" y1="66.384" y2="-.064"/><linearGradient xmlns="http://www.w3.org/2000/svg" xmlns:xlink="http://www.w3.org/1999/xlink" id="New_Gradient_Swatch_3-5" x1="36.206" x2="32.828" xlink:href="#New_Gradient_Swatch_3" y1="66.394" y2="-.054"/><g xmlns="http://www.w3.org/2000/svg" id="File_folder" data-name="File folder"><path d="m60.144 27.737a5 5 0 0 0 -3.789-1.737h-.355v-5a5.009 5.009 0 0 0 -4-4.9v-9.1a1 1 0 0 0 -1-1h-3v-3a1 1 0 0 0 -1-1h-34a1 1 0 0 0 -1 1v7.1a5.009 5.009 0 0 0 -4 4.9v1h-1a5.006 5.006 0 0 0 -5 5v40a1.65 1.65 0 0 0 .233.642 1 1 0 0 0 .767.358h48.555a4.961 4.961 0 0 0 4.94-4.225l4.805-26.033a5 5 0 0 0 -1.156-4.005zm-6.144-6.737v5h-2v-7.816a3 3 0 0 1 2 2.816zm-4 5h-32v-18h32zm-36-22h32v2h-29a1 1 0 0 0 -1 1v19h-2zm-10 17a3 3 0 0 1 3-3h2a1 1 0 0 0 1-1v-2a3 3 0 0 1 2-2.816v13.856a4.943 4.943 0 0 0 -4.5 4.19l-3.5 19.533zm55.328 10.412-4.806 26.033a3.019 3.019 0 0 1 -2.967 2.555h-47.355l5.278-29.445a3.019 3.019 0 0 1 2.967-2.555h43.91a3 3 0 0 1 2.973 3.412z" fill="url(#New_Gradient_Swatch_3)" data-original="url(#New_Gradient_Swatch_3)" style=""/><path d="m47 14h-26a1 1 0 0 0 0 2h26a1 1 0 0 0 0-2z" fill="url(#New_Gradient_Swatch_3-2)" data-original="url(#New_Gradient_Swatch_3-2)" style=""/><path d="m21 10a1 1 0 0 0 0 2h26a1 1 0 0 0 0-2z" fill="url(#New_Gradient_Swatch_3-3)" data-original="url(#New_Gradient_Swatch_3-3)" style=""/><path d="m47 18h-26a1 1 0 0 0 0 2h26a1 1 0 0 0 0-2z" fill="url(#New_Gradient_Swatch_3-4)" data-original="url(#New_Gradient_Swatch_3-4)" style=""/><path d="m47 22h-26a1 1 0 0 0 0 2h26a1 1 0 0 0 0-2z" fill="url(#New_Gradient_Swatch_3-5)" data-original="url(#New_Gradient_Swatch_3-5)" style=""/></g></g></svg>
